HIERARCHY
ROOT Hips
{
     OFFSET 1.88212 96.90440 -13.34250
     CHANNELS 6 Xposition Yposition Zposition Zrotation Xrotation Yrotation
     JOINT Spine
     {
          OFFSET 0.00000 11.89050 0.00000
          CHANNELS 3 Zrotation Xrotation Yrotation
          JOINT Spine1
          {
               OFFSET -0.00000 25.65740 0.12766
               CHANNELS 3 Zrotation Xrotation Yrotation
               JOINT HEad
               {
                    OFFSET 0.00000 8.73416 0.01134
                    CHANNELS 3 Zrotation Xrotation Yrotation
                    End Site
                    {
                         OFFSET -0.29000 12.77420 2.51395
                    }
               }
               JOINT LeftShoulder1
               {
                    OFFSET 8.99000 -0.36225 -0.22000
                    CHANNELS 3 Zrotation Xrotation Yrotation
                    JOINT LeftArm
                    {
                         OFFSET 10.28270 -0.00338 0.32212
                         CHANNELS 3 Zrotation Xrotation Yrotation
                         JOINT LeftForeArm
                         {
                              OFFSET 32.76690 0.09914 -1.42434
                              CHANNELS 3 Zrotation Xrotation Yrotation
                              JOINT LeftHand
                              {
                                   OFFSET 27.56430 0.08536 1.02216
                                   CHANNELS 3 Zrotation Xrotation Yrotation
                                   End Site
                                   {
                                        OFFSET 16.74430 -0.60000 1.50291
                                   }
                              }
                         }
                    }
               }
               JOINT RightShoulder
               {
                    OFFSET -8.99000 -0.36225 -0.22000
                    CHANNELS 3 Zrotation Xrotation Yrotation
                    JOINT RightArm
                    {
                         OFFSET -10.28270 -0.00338 0.32212
                         CHANNELS 3 Zrotation Xrotation Yrotation
                         JOINT RightForeArm
                         {
                              OFFSET -32.89710 0.09914 -1.42434
                              CHANNELS 3 Zrotation Xrotation Yrotation
                              JOINT RightHand
                              {
                                   OFFSET -27.49210 0.08536 1.02216
                                   CHANNELS 3 Zrotation Xrotation Yrotation
                                   End Site
                                   {
                                        OFFSET -16.63120 -0.60000 1.50291
                                   }
                              }
                         }
                    }
               }
          }
     }
     JOINT LeftUpLeg
     {
          OFFSET 8.94580 -8.66707 0.10165
          CHANNELS 3 Zrotation Xrotation Yrotation
          JOINT LeftLeg
          {
               OFFSET 0.00000 -44.42270 1.37270
               CHANNELS 3 Zrotation Xrotation Yrotation
               JOINT LeftFoot
               {
                    OFFSET -0.25355 -42.09240 -1.46059
                    CHANNELS 3 Zrotation Xrotation Yrotation
                    JOINT LeftToes
                    {
                         OFFSET -0.04000 -4.41509 8.49910
                         CHANNELS 3 Zrotation Xrotation Yrotation
                         End Site
                         {
                              OFFSET 0.08000 -0.04745 9.77979
                         }
                    }
               }
          }
     }
     JOINT RightUpLeg
     {
          OFFSET -8.94580 -8.66707 0.10165
          CHANNELS 3 Zrotation Xrotation Yrotation
          JOINT RightLeg
          {
               OFFSET 0.00000 -44.42270 1.37270
               CHANNELS 3 Zrotation Xrotation Yrotation
               JOINT RightFoot
               {
                    OFFSET 0.25355 -42.09240 -1.46059
                    CHANNELS 3 Zrotation Xrotation Yrotation
                    JOINT RightToes
                    {
                         OFFSET 0.04000 -4.41509 8.49910
                         CHANNELS 3 Zrotation Xrotation Yrotation
                         End Site
                         {
                              OFFSET -0.08000 -0.13745 9.77979
                         }
                    }
               }
          }
     }
}
MOTION
Frames: 6
Frame Time: 0.01667
26.61969 92.96648 -41.27407 5.45869 7.02667 142.68341 -14.05567 19.66330 17.87796 0.01267 0.00533 0.06178 -3.47263 28.65559 -2.92063 2.42726 8.03031 -2.53141 -158.94499 -64.69528 -128.21307 -28.75538 68.07120 -89.20914 18.65171 5.68742 -7.58028 19.05126 8.71690 -2.04943 71.16138 3.30788 71.38950 0.68710 26.37257 92.09098 16.47952 9.46630 11.22267 14.58719 -9.28438 14.05410 -12.63360 17.28817 37.27571 -26.96429 0.01299 0.00712 31.62642 -1.14626 -49.52900 -31.51622 3.86070 55.29213 34.24648 -19.50214 -71.94216 -22.76267 -0.01132 -0.00577 11.63902 -22.25811 18.81494 
26.34164 92.98299 -41.58251 4.79178 7.67144 144.16646 -15.63155 20.61147 9.97478 0.01063 0.00419 0.06660 -9.53134 29.49723 8.88576 2.25088 7.52060 4.58977 -160.72810 -64.99017 -130.31012 -29.37867 68.23859 -89.42758 17.22868 9.78818 -7.87425 18.73699 10.05949 4.87327 71.23376 3.05059 72.23951 0.45908 26.16969 92.26502 15.53576 13.96059 13.33739 14.30537 -8.63213 5.29086 -16.59431 14.19357 44.30794 -25.05535 0.00986 0.00584 30.87939 -2.03273 -48.53259 -32.36098 8.03275 47.29790 32.51292 -19.00995 -67.61668 -22.52746 0.00738 -0.00694 11.24736 -21.69315 20.84837 
26.01173 92.99213 -41.95652 4.28840 8.28297 145.60980 -16.76773 21.65268 3.14089 0.00954 0.00520 0.06394 -15.13535 29.11459 19.11721 2.09683 7.14438 10.54030 -161.61964 -65.38940 -131.74039 -30.42311 67.95628 -89.14201 17.55480 5.97726 -6.89402 18.37075 11.20505 10.60068 71.60935 2.72387 72.79452 0.54418 25.94860 92.20397 15.51952 9.37942 11.16891 14.13230 -8.09664 -2.86176 -19.83079 10.81549 50.70008 -23.05616 0.00491 0.00556 30.17970 -3.11305 -47.80960 -32.42060 11.57706 38.65197 31.23472 -17.61029 -62.33614 -21.85764 0.01571 -0.01011 10.66929 -20.54642 23.52523 
25.61229 92.99390 -42.37999 3.94389 8.84068 146.98096 -17.36847 22.30840 -2.51661 0.00690 0.00986 0.05810 -20.00958 28.36644 27.54794 1.82351 7.26085 15.12340 -161.83273 -65.85385 -132.61092 -31.34973 67.41977 -88.78870 16.53019 8.61651 -7.02851 17.91981 12.47394 14.89755 72.18396 2.35347 73.11268 0.73231 25.79714 92.17963 15.35137 12.53047 12.38153 14.04726 -7.62672 -10.34642 -22.38905 7.38927 56.46087 -21.06024 -0.00018 0.00629 29.47948 -4.44061 -47.40594 -31.88682 14.16622 29.39402 30.33501 -15.15628 -56.33007 -20.78330 0.01827 -0.01466 9.80678 -19.64186 24.95502 
25.13532 92.98750 -42.84441 3.74616 9.32745 148.25121 -17.57194 22.62557 -6.98343 0.00408 0.01414 0.05120 -24.03975 27.54919 34.22358 1.42875 7.71811 18.40214 -161.44807 -66.33805 -132.93561 -31.93791 66.68650 -88.52911 16.70782 6.62811 -6.35532 17.42136 13.74478 17.89851 72.88869 1.92564 73.27430 0.94485 25.70032 92.20145 15.43752 10.12121 11.34025 14.03582 -7.20114 -17.11759 -24.36246 4.08781 61.63001 -19.11652 -0.00441 0.00728 28.74147 -5.95108 -47.26915 -31.16684 16.20335 20.83436 29.40855 -12.68533 -50.51798 -19.38174 0.01628 -0.01798 8.79948 -18.63376 26.20798 
24.58448 92.97430 -43.35003 3.67818 9.73106 149.39632 -17.47441 22.66002 -10.30703 0.00129 0.01744 0.04360 -27.24267 26.88132 39.29627 0.93596 8.39842 20.48716 -160.52667 -66.79180 -132.70860 -32.06764 65.89365 -88.48052 15.98642 8.24097 -6.45803 16.93857 14.94341 19.73117 73.65967 1.47437 73.32987 1.11690 25.68627 92.33579 15.54875 12.13461 12.00438 14.08229 -6.81275 -23.14080 -25.85449 1.02395 66.25091 -17.24506 -0.00756 0.00804 27.92365 -7.58108 -47.38326 -30.39876 17.73650 13.04383 28.47511 -10.22675 -44.96367 -17.73750 0.01121 -0.01923 7.68884 -17.76096 26.90003 
